<?xml version="1.0" encoding="UTF-8" standalone="no"?>
<svg
   xmlns:dc="http://purl.org/dc/elements/1.1/"
   xmlns:cc="http://creativecommons.org/ns#"
   xmlns:rdf="http://www.w3.org/1999/02/22-rdf-syntax-ns#"
   xmlns:svg="http://www.w3.org/2000/svg"
   xmlns="http://www.w3.org/2000/svg"
   width="500"
   height="200"
   viewBox="0 0 500 200"
   version="1.1"
   id="svg8">
  <defs
     id="defs2" />
  <metadata
     id="metadata5">
    <rdf:RDF>
      <cc:Work
         rdf:about="">
        <dc:format>image/svg+xml</dc:format>
        <dc:type
           rdf:resource="http://purl.org/dc/dcmitype/StillImage" />
        <dc:title></dc:title>
      </cc:Work>
    </rdf:RDF>
  </metadata>
  <g
     id="layer5">
    <path
       id="rect856"
       style="opacity:0.725807;fill:none;stroke:#ffffff;stroke-width:3.07227;stroke-linejoin:miter;stroke-miterlimit:4;stroke-dasharray:none"
       d="M 35.823604,28.740453 H 345.4295 V 55.952249 H 35.823604 Z" />
    <path
       style="fill:none;stroke:#cccccc;stroke-width:2;stroke-linecap:butt;stroke-linejoin:miter;stroke-miterlimit:4;stroke-dasharray:none;stroke-opacity:1"
       d="m 332.97414,30.346353 v 24"
       id="path862" />
    <path
       id="rect864"
       style="opacity:0.725807;fill:#cccccc;stroke:#cccccc;stroke-width:2;stroke-linejoin:round;stroke-miterlimit:4;stroke-dasharray:none"
       d="m 208.4295,127.34635 h 14 v 14 h -14 z" />
    <path
       d="m 227.99861,140.83498 v -12.27417 h 1.61293 v 12.27417 z"
       style="font-style:normal;font-variant:normal;font-weight:normal;font-stretch:normal;font-size:16.3453px;line-height:1.25;font-family:'Lucida Sans Unicode';-inkscape-font-specification:'Lucida Sans Unicode';fill:#e6e6e6;stroke:#e6e6e6;stroke-width:0.766187"
       id="path1001" />
    <path
       d="m 232.44568,128.56081 h 1.61293 v 7.74599 q 0,1.84942 0.62981,2.69534 0.63749,0.83763 2.02,0.83763 1.35179,0 1.91248,-0.78787 0.56836,-0.79616 0.56836,-2.68705 v -7.80404 h 1.41323 v 7.77917 q 0,1.6089 -0.29186,2.47142 -0.29186,0.8625 -1.05224,1.51768 -0.9524,0.81275 -2.6191,0.81275 -2.15825,0 -3.17976,-1.17766 -1.01385,-1.17766 -1.01385,-3.67396 z"
       style="font-style:normal;font-variant:normal;font-weight:normal;font-stretch:normal;font-size:16.3453px;line-height:1.25;font-family:'Lucida Sans Unicode';-inkscape-font-specification:'Lucida Sans Unicode';fill:#e6e6e6;stroke:#e6e6e6;stroke-width:0.766187"
       id="path1003" />
    <path
       d="m 243.10637,136.33168 v -1.02008 h 6.82038 v 1.02008 z"
       style="font-style:normal;font-variant:normal;font-weight:normal;font-stretch:normal;font-size:16.3453px;line-height:1.25;font-family:'Lucida Sans Unicode';-inkscape-font-specification:'Lucida Sans Unicode';fill:#e6e6e6;stroke:#e6e6e6;stroke-width:0.766187"
       id="path1005" />
    <path
       d="m 255.18797,140.83498 v -11.04675 h -1.79726 v -1.02838 l 3.31802,-0.30685 v 12.38198 z"
       style="font-style:normal;font-variant:normal;font-weight:normal;font-stretch:normal;font-size:16.3453px;line-height:1.25;font-family:'Lucida Sans Unicode';-inkscape-font-specification:'Lucida Sans Unicode';fill:#e6e6e6;stroke:#e6e6e6;stroke-width:0.766187"
       id="path1007" />
    <path
       d="m 265.99459,141.14183 q -1.78959,0 -2.88791,-1.76649 -1.09065,-1.77477 -1.09065,-4.67745 0,-2.90268 1.09065,-4.66916 1.09832,-1.77478 2.88791,-1.77478 1.79726,0 2.88791,1.76649 1.09064,1.76648 1.09064,4.67745 0,2.90268 -1.09064,4.67745 -1.09065,1.76649 -2.88791,1.76649 z m 0,-1.22742 q 2.3733,0 2.3733,-5.21652 0,-5.21651 -2.3733,-5.21651 -2.36563,0 -2.36563,5.21651 0,5.21652 2.36563,5.21652 z"
       style="font-style:normal;font-variant:normal;font-weight:normal;font-stretch:normal;font-size:16.3453px;line-height:1.25;font-family:'Lucida Sans Unicode';-inkscape-font-specification:'Lucida Sans Unicode';fill:#e6e6e6;stroke:#e6e6e6;stroke-width:0.766187"
       id="path1009" />
    <path
       d="m 273.66751,134.47397 q 1.08297,-1.51768 2.72663,-1.51768 1.49003,0 2.43475,1.06984 0.95239,1.06155 0.95239,2.72851 0,1.91577 -1.0676,3.15147 -1.05993,1.23572 -2.70358,1.23572 -1.87407,0 -2.93399,-1.63379 -1.05992,-1.64209 -1.05992,-4.53646 0,-3.89788 1.85102,-5.72243 1.00616,-1.00349 2.78038,-1.00349 1.0292,0 2.54997,0.46443 v 1.42645 q -1.60525,-0.66347 -2.64213,-0.66347 -2.88792,0 -2.88792,5.0009 z m 4.59301,2.60412 q 0,-1.36011 -0.58373,-2.14799 -0.58372,-0.79615 -1.59756,-0.79615 -0.96776,0 -1.65902,0.69664 -0.69125,0.69664 -0.69125,1.67525 0,1.54257 0.65286,2.47971 0.66052,0.92886 1.74349,0.92886 0.98312,0 1.55916,-0.76299 0.57605,-0.76299 0.57605,-2.07333 z"
       style="font-style:normal;font-variant:normal;font-weight:normal;font-stretch:normal;font-size:16.3453px;line-height:1.25;font-family:'Lucida Sans Unicode';-inkscape-font-specification:'Lucida Sans Unicode';fill:#e6e6e6;stroke:#e6e6e6;stroke-width:0.766187"
       id="path1011" />
    <path
       d="m 283.6139,134.47397 q 1.08297,-1.51768 2.72663,-1.51768 1.49003,0 2.43475,1.06984 0.95239,1.06155 0.95239,2.72851 0,1.91577 -1.0676,3.15147 -1.05993,1.23572 -2.70358,1.23572 -1.87407,0 -2.93399,-1.63379 -1.05992,-1.64209 -1.05992,-4.53646 0,-3.89788 1.85102,-5.72243 1.00616,-1.00349 2.78038,-1.00349 1.0292,0 2.54997,0.46443 v 1.42645 q -1.60525,-0.66347 -2.64213,-0.66347 -2.88792,0 -2.88792,5.0009 z m 4.59301,2.60412 q 0,-1.36011 -0.58373,-2.14799 -0.58372,-0.79615 -1.59756,-0.79615 -0.96776,0 -1.65902,0.69664 -0.69125,0.69664 -0.69125,1.67525 0,1.54257 0.65286,2.47971 0.66052,0.92886 1.74349,0.92886 0.98312,0 1.55916,-0.76299 0.57605,-0.76299 0.57605,-2.07333 z"
       style="font-style:normal;font-variant:normal;font-weight:normal;font-stretch:normal;font-size:16.3453px;line-height:1.25;font-family:'Lucida Sans Unicode';-inkscape-font-specification:'Lucida Sans Unicode';fill:#e6e6e6;stroke:#e6e6e6;stroke-width:0.766187"
       id="path1013" />
    <path
       d="m 97.80248,152.18041 -5.82047,12.28225 h -1.40438 l 5.79612,-12.28225 z"
       style="font-size:14.9945px;line-height:0.562289px;font-family:sans-serif;fill:#cccccc;stroke:#cccccc;stroke-width:0.562289"
       id="path1017" />
    <path
       d="m 105.35205,152.18041 -5.82047,12.28225 H 98.1272 l 5.79611,-12.28225 z"
       style="font-size:14.9945px;line-height:0.562289px;font-family:sans-serif;fill:#cccccc;stroke:#cccccc;stroke-width:0.562289"
       id="path1019" />
    <path
       d="m 112.90161,152.18041 -5.82047,12.28225 h -1.40438 l 5.79611,-12.28225 z"
       style="font-size:14.9945px;line-height:0.562289px;font-family:sans-serif;fill:#cccccc;stroke:#cccccc;stroke-width:0.562289"
       id="path1021" />
    <path
       d="m 120.45117,152.18041 -5.82047,12.28225 h -1.40438 l 5.79612,-12.28225 z"
       style="font-size:14.9945px;line-height:0.562289px;font-family:sans-serif;fill:#cccccc;stroke:#cccccc;stroke-width:0.562289"
       id="path1023" />
    <path
       d="m 128.00073,152.18041 -5.82047,12.28225 h -1.40438 l 5.79612,-12.28225 z"
       style="font-size:14.9945px;line-height:0.562289px;font-family:sans-serif;fill:#cccccc;stroke:#cccccc;stroke-width:0.562289"
       id="path1025" />
    <path
       d="m 135.55029,152.18041 -5.82046,12.28225 h -1.40438 l 5.79611,-12.28225 z"
       style="font-size:14.9945px;line-height:0.562289px;font-family:sans-serif;fill:#cccccc;stroke:#cccccc;stroke-width:0.562289"
       id="path1027" />
    <path
       d="m 152.70323,159.4309 q 0,0.73297 -0.34095,1.29426 -0.34094,0.56128 -0.91731,0.92446 -0.6819,0.43583 -1.50179,0.62072 -0.81179,0.18489 -2.07005,0.18489 h -4.28621 v -9.8324 h 3.57996 q 1.3232,0 1.98075,0.0793 0.65754,0.0793 1.25826,0.33016 0.66566,0.28395 0.96602,0.73297 0.30036,0.44243 0.30036,1.06315 0,0.69995 -0.43836,1.19521 -0.43836,0.48864 -1.16897,0.7858 v 0.0528 q 1.22579,0.2047 1.93204,0.87825 0.70625,0.66694 0.70625,1.69046 z M 150,155.00004 q 0,-0.35658 -0.14612,-0.60091 -0.14612,-0.24433 -0.47083,-0.3962 -0.38154,-0.17829 -0.92544,-0.21791 -0.54389,-0.0463 -1.34755,-0.0463 h -1.9158 v 2.83945 h 2.07815 q 0.75496,0 1.20144,-0.0594 0.44648,-0.066 0.82801,-0.26413 0.38155,-0.19809 0.53579,-0.50846 Q 150,155.42922 150,155 Z m 1.03096,4.48368 q 0,-0.5943 -0.21918,-0.94428 -0.21918,-0.34998 -0.79554,-0.59431 -0.38966,-0.16507 -0.94979,-0.21129 -0.55201,-0.0529 -1.34755,-0.0529 h -2.52464 v 3.65827 h 2.12686 q 1.05532,0 1.7291,-0.0859 0.67377,-0.0924 1.10402,-0.33017 0.45459,-0.25753 0.66566,-0.5877 0.21106,-0.33017 0.21106,-0.85183 z"
       style="font-size:14.9945px;line-height:0.562289px;font-family:sans-serif;fill:#cccccc;stroke:#cccccc;stroke-width:0.562289"
       id="path1029" />
    <path
       d="m 162.88296,154.09538 -5.47141,8.35985 h -1.7372 l 5.82046,-8.67681 h -6.8839 v -1.15559 h 8.27205 z"
       style="font-size:14.9945px;line-height:0.562289px;font-family:sans-serif;fill:#cccccc;stroke:#cccccc;stroke-width:0.562289"
       id="path1031" />
    <path
       d="m 172.72987,162.45523 h -6.54296 v -1.0037 h 2.51652 v -6.59016 h -2.51652 v -0.89806 q 0.51142,0 1.0959,-0.066 0.58449,-0.0726 0.88485,-0.2047 0.37342,-0.16508 0.58448,-0.41601 0.21918,-0.25753 0.25166,-0.68675 h 1.25825 v 8.86171 h 2.46782 z"
       style="font-size:14.9945px;line-height:0.562289px;font-family:sans-serif;fill:#cccccc;stroke:#cccccc;stroke-width:0.562289"
       id="path1033" />
    <path
       d="m 183.98927,162.45523 h -8.18276 v -1.3801 q 0.85237,-0.5943 1.70474,-1.18861 0.8605,-0.59429 1.59922,-1.18199 1.55861,-1.22823 2.13498,-1.948 0.57636,-0.72637 0.57636,-1.565 0,-0.76598 -0.62507,-1.1952 -0.61696,-0.43582 -1.7291,-0.43582 -0.73872,0 -1.5992,0.21131 -0.86049,0.2113 -1.68039,0.64713 h -0.0812 v -1.38672 q 0.57636,-0.23111 1.53426,-0.42261 0.96602,-0.1915 1.8671,-0.1915 1.85897,0 2.91429,0.73298 1.05532,0.72637 1.05532,1.9744 0,0.56129 -0.17859,1.04993 -0.17047,0.48206 -0.51143,0.91788 -0.31659,0.4094 -0.74683,0.8056 -0.42213,0.39621 -1.03096,0.87825 -0.86861,0.69336 -1.79404,1.34709 -0.92543,0.64713 -1.7291,1.20181 h 6.50237 z"
       style="font-size:14.9945px;line-height:0.562289px;font-family:sans-serif;fill:#cccccc;stroke:#cccccc;stroke-width:0.562289"
       id="path1035" />
    <path
       d="m 191.37647,158.75075 h -5.06552 v -1.19521 h 5.06552 z"
       style="font-size:14.9945px;line-height:0.562289px;font-family:sans-serif;fill:#cccccc;stroke:#cccccc;stroke-width:0.562289"
       id="path1037" />
    <path
       d="m 202.09198,157.53573 q 0,2.64795 -1.02285,3.88938 -1.01472,1.23483 -3.15783,1.23483 -2.17557,0 -3.18218,-1.25464 -0.99848,-1.25463 -0.99848,-3.85637 0,-2.62153 1.01473,-3.86957 1.01472,-1.25464 3.16593,-1.25464 2.17559,0 3.17407,1.27446 1.00661,1.26784 1.00661,3.83655 z m -2.13499,2.99793 q 0.28412,-0.53488 0.38154,-1.25465 0.10555,-0.72636 0.10555,-1.74328 0,-1.00371 -0.10555,-1.74329 -0.0975,-0.73958 -0.38965,-1.25464 -0.28412,-0.50846 -0.77931,-0.76598 -0.48707,-0.25753 -1.25827,-0.25753 -0.76307,0 -1.26637,0.25753 -0.49519,0.25752 -0.78742,0.77919 -0.27602,0.48865 -0.38155,1.27445 -0.0975,0.7858 -0.0975,1.72347 0,1.03013 0.0893,1.72348 0.0892,0.69335 0.38154,1.24144 0.26789,0.51506 0.75495,0.78579 0.49519,0.27075 1.30696,0.27075 0.76308,0 1.26638,-0.25753 0.50331,-0.25753 0.77932,-0.7792 z"
       style="font-size:14.9945px;line-height:0.562289px;font-family:sans-serif;fill:#cccccc;stroke:#cccccc;stroke-width:0.562289"
       id="path1039" />
    <path
       d="m 211.9876,162.45523 h -6.54296 v -1.0037 h 2.51652 v -6.59016 h -2.51652 v -0.89806 q 0.51142,0 1.09591,-0.066 0.58448,-0.0726 0.88483,-0.2047 0.37342,-0.16508 0.58448,-0.41601 0.21919,-0.25753 0.25166,-0.68675 h 1.25826 v 8.86171 h 2.46782 z"
       style="font-size:14.9945px;line-height:0.562289px;font-family:sans-serif;fill:#cccccc;stroke:#cccccc;stroke-width:0.562289"
       id="path1041" />
    <path
       d="m 232.42824,152.18041 -5.82047,12.28225 h -1.40439 l 5.79613,-12.28225 z"
       style="font-size:14.9945px;line-height:0.562289px;font-family:sans-serif;fill:#cccccc;stroke:#cccccc;stroke-width:0.562289"
       id="path1043" />
    <path
       d="m 239.97781,152.18041 -5.82047,12.28225 h -1.40439 l 5.79612,-12.28225 z"
       style="font-size:14.9945px;line-height:0.562289px;font-family:sans-serif;fill:#cccccc;stroke:#cccccc;stroke-width:0.562289"
       id="path1045" />
    <path
       d="m 250.01953,156.94803 q 0,1.28766 -0.3653,2.3376 -0.35719,1.04993 -1.08779,1.7895 -0.73873,0.75279 -1.85087,1.16219 -1.11213,0.40942 -2.61393,0.40942 -0.42212,0 -0.79554,-0.0396 -0.37342,-0.033 -0.66567,-0.11226 v -1.26124 h 0.0812 q 0.23541,0.0991 0.66566,0.1915 0.43024,0.0859 0.9579,0.0859 1.79404,0 2.80876,-0.87164 1.02284,-0.87825 1.1852,-2.41683 -0.75496,0.36978 -1.42062,0.52826 -0.66565,0.15849 -1.45308,0.15849 -0.74684,0 -1.35568,-0.11887 -0.60072,-0.11886 -1.20956,-0.46223 -0.71436,-0.40281 -1.07966,-1.02352 -0.35719,-0.62072 -0.35719,-1.48576 0,-1.50557 1.21767,-2.44985 1.21768,-0.94428 2.97112,-0.94428 0.87673,0 1.62357,0.22451 0.74683,0.21792 1.30697,0.66034 0.69001,0.54809 1.06343,1.41313 0.37342,0.85843 0.37342,2.22532 z m -1.6398,-0.28394 q 0,-1.02352 -0.25977,-1.64425 -0.25977,-0.62071 -0.71437,-0.96408 -0.38154,-0.29716 -0.8199,-0.42262 -0.43835,-0.13207 -0.94978,-0.13207 -1.16896,0 -1.85086,0.59431 -0.67378,0.5943 -0.67378,1.67065 0,0.62731 0.21918,1.02352 0.21919,0.3962 0.73872,0.69336 0.3653,0.20469 0.80367,0.27733 0.43836,0.066 0.97413,0.066 0.63319,0 1.28262,-0.13867 0.64942,-0.13867 1.21767,-0.40281 0.008,-0.13867 0.0162,-0.27073 0.0162,-0.13867 0.0162,-0.34998 z"
       style="font-size:14.9945px;line-height:0.562289px;font-family:sans-serif;fill:#cccccc;stroke:#cccccc;stroke-width:0.562289"
       id="path1047" />
    <path
       d="m 257.42297,158.75075 h -5.06551 v -1.19521 h 5.06551 z"
       style="font-size:14.9945px;line-height:0.562289px;font-family:sans-serif;fill:#cccccc;stroke:#cccccc;stroke-width:0.562289"
       id="path1049" />
    <path
       d="m 268.13848,157.53573 q 0,2.64795 -1.02285,3.88938 -1.01473,1.23483 -3.15782,1.23483 -2.17558,0 -3.18218,-1.25464 -0.9985,-1.25463 -0.9985,-3.85637 0,-2.62153 1.01473,-3.86957 1.01472,-1.25464 3.16595,-1.25464 2.17557,0 3.17406,1.27446 1.00661,1.26784 1.00661,3.83655 z m -2.13499,2.99793 q 0.28413,-0.53488 0.38154,-1.25465 0.10556,-0.72636 0.10556,-1.74328 0,-1.00371 -0.10556,-1.74329 -0.0975,-0.73958 -0.38966,-1.25464 -0.28412,-0.50846 -0.7793,-0.76598 -0.48708,-0.25753 -1.25826,-0.25753 -0.76309,0 -1.26638,0.25753 -0.49519,0.25752 -0.78743,0.77919 -0.27601,0.48865 -0.38154,1.27445 -0.0975,0.7858 -0.0975,1.72347 0,1.03013 0.0893,1.72348 0.0893,0.69335 0.38153,1.24144 0.26789,0.51506 0.75496,0.78579 0.49518,0.27075 1.30697,0.27075 0.76307,0 1.26638,-0.25753 0.50329,-0.25753 0.7793,-0.7792 z"
       style="font-size:14.9945px;line-height:0.562289px;font-family:sans-serif;fill:#cccccc;stroke:#cccccc;stroke-width:0.562289"
       id="path1051" />
    <path
       d="m 278.03409,162.45523 h -6.54296 v -1.0037 h 2.51653 v -6.59016 h -2.51653 v -0.89806 q 0.51143,0 1.09591,-0.066 0.58448,-0.0726 0.88484,-0.2047 0.37342,-0.16508 0.58448,-0.41601 0.21918,-0.25753 0.25166,-0.68675 h 1.25825 v 8.86171 h 2.46782 z"
       style="font-size:14.9945px;line-height:0.562289px;font-family:sans-serif;fill:#cccccc;stroke:#cccccc;stroke-width:0.562289"
       id="path1053" />
    <path
       d="m 289.29349,162.45523 h -8.18275 v -1.3801 q 0.85237,-0.5943 1.70473,-1.18861 0.8605,-0.59429 1.59922,-1.18199 1.55862,-1.22823 2.13498,-1.948 0.57637,-0.72637 0.57637,-1.565 0,-0.76598 -0.62508,-1.1952 -0.61695,-0.43582 -1.72909,-0.43582 -0.73872,0 -1.59921,0.21131 -0.86048,0.2113 -1.68039,0.64713 h -0.0812 v -1.38672 q 0.57637,-0.23111 1.53427,-0.42261 0.96601,-0.1915 1.86709,-0.1915 1.85898,0 2.91429,0.73298 1.05532,0.72637 1.05532,1.9744 0,0.56129 -0.17859,1.04993 -0.17047,0.48206 -0.51142,0.91788 -0.3166,0.4094 -0.74684,0.8056 -0.42213,0.39621 -1.03096,0.87825 -0.86861,0.69336 -1.79404,1.34709 -0.92543,0.64713 -1.72909,1.20181 h 6.50236 z"
       style="font-size:14.9945px;line-height:0.562289px;font-family:sans-serif;fill:#cccccc;stroke:#cccccc;stroke-width:0.562289"
       id="path1055" />
    <path
       d="m 379.11007,42.409636 q 0,3.822857 -1.52057,6.930106 -1.50348,3.107248 -4.01498,4.820942 -1.74267,1.186404 -3.89539,1.713695 -2.13562,0.52729 -5.63805,0.52729 h -6.42396 v -28.04056 h 6.35562 q 3.72453,0 5.91142,0.602618 2.20396,0.583786 3.72453,1.619534 2.59692,1.789022 4.04915,4.764448 1.45223,2.975425 1.45223,7.061927 z m -3.53661,-0.05649 q 0,-3.295567 -1.04218,-5.555384 -1.04219,-2.259817 -3.10948,-3.559211 -1.50348,-0.94159 -3.19489,-1.299395 -1.69141,-0.376636 -4.04915,-0.376636 h -3.17781 v 21.637743 h 3.17781 q 2.44316,0 4.25417,-0.395468 1.8281,-0.395467 3.34866,-1.46888 1.89644,-1.337059 2.83611,-3.521549 0.95676,-2.184489 0.95676,-5.461223 z"
       style="font-style:normal;font-variant:normal;font-weight:normal;font-stretch:normal;font-size:36.7353px;line-height:1.25;font-family:Verdana;-inkscape-font-specification:Verdana;fill:#cccccc;stroke:#cccccc;stroke-width:1.37757"
       id="path1058" />
    <path
       d="m 403.06325,48.398151 q 0,1.638368 -0.70049,3.239071 -0.6834,1.600704 -1.9306,2.71178 -1.3668,1.205236 -3.1949,1.883181 -1.81101,0.677945 -4.37376,0.677945 -2.7507,0 -4.95466,-0.564954 -2.18687,-0.564954 -4.45919,-1.67603 v -4.670289 h 0.23919 q 1.93061,1.770189 4.45919,2.730612 2.52858,0.960422 4.74963,0.960422 3.14365,0 4.88632,-1.299394 1.75976,-1.299395 1.75976,-3.465053 0,-1.864349 -0.83718,-2.749444 -0.82007,-0.885095 -2.51149,-1.374722 -1.28137,-0.376636 -2.78485,-0.621449 -1.4864,-0.244814 -3.16073,-0.62145 -3.38284,-0.790936 -5.02299,-2.692949 -1.62308,-1.920844 -1.62308,-4.990428 0,-3.521549 2.69943,-5.762534 2.69943,-2.259816 6.85109,-2.259816 2.68234,0 4.92048,0.564954 2.23814,0.564954 3.96372,1.393554 v 4.406643 h -0.23919 q -1.45222,-1.355891 -3.82703,-2.240986 -2.35774,-0.903926 -4.83507,-0.903926 -2.71651,0 -4.37376,1.242899 -1.64016,1.242899 -1.64016,3.201408 0,1.751357 0.82009,2.749444 0.82007,0.998085 2.88736,1.525375 1.09344,0.263646 3.10947,0.640282 2.01603,0.376636 3.417,0.772104 2.83612,0.828599 4.27126,2.50463 1.43514,1.676031 1.43514,4.68912 z"
       style="font-style:normal;font-variant:normal;font-weight:normal;font-stretch:normal;font-size:36.7353px;line-height:1.25;font-family:Verdana;-inkscape-font-specification:Verdana;fill:#cccccc;stroke:#cccccc;stroke-width:1.37757"
       id="path1060" />
    <path
       d="m 418.35433,45.837026 h -10.66105 v -3.408558 h 10.66105 z"
       style="font-style:normal;font-variant:normal;font-weight:normal;font-stretch:normal;font-size:36.7353px;line-height:1.25;font-family:Verdana;-inkscape-font-specification:Verdana;fill:#cccccc;stroke:#cccccc;stroke-width:1.37757"
       id="path1062" />
    <path
       d="m 439.48849,56.401669 h -13.77052 v -2.862435 h 5.29635 V 34.745091 h -5.29635 v -2.561125 q 1.07635,0 2.30648,-0.188319 1.23011,-0.20715 1.86226,-0.583786 0.78592,-0.470795 1.23012,-1.186404 0.4613,-0.73444 0.52963,-1.958508 h 2.64818 v 25.272285 h 5.19385 z"
       style="font-style:normal;font-variant:normal;font-weight:normal;font-stretch:normal;font-size:36.7353px;line-height:1.25;font-family:Verdana;-inkscape-font-specification:Verdana;fill:#cccccc;stroke:#cccccc;stroke-width:1.37757"
       id="path1064" />
    <path
       d="m 463.25374,32.560602 -11.5153,23.841067 h -3.65619 L 460.3322,31.656674 h -14.48809 v -3.295565 h 17.40963 z"
       style="font-style:normal;font-variant:normal;font-weight:normal;font-stretch:normal;font-size:36.7353px;line-height:1.25;font-family:Verdana;-inkscape-font-specification:Verdana;fill:#cccccc;stroke:#cccccc;stroke-width:1.37757"
       id="path1066" />
    <path
       id="rect898"
       style="opacity:0.725807;fill:#e6e6e6;stroke:#e6e6e6;stroke-width:2;stroke-linejoin:miter;stroke-miterlimit:4;stroke-dasharray:none"
       d="m 300.4295,96.346353 h 35 v 69.999997 h -35 z" />
    <path
       id="rect898-8"
       style="opacity:0.725807;fill:#e6e6e6;stroke:#e6e6e6;stroke-width:1.69031;stroke-linejoin:miter;stroke-miterlimit:4;stroke-dasharray:none"
       d="m 340.4295,96.346353 h 25 v 69.999997 h -25 z" />
    <path
       id="rect898-9"
       style="opacity:0.725807;fill:#e6e6e6;stroke:#e6e6e6;stroke-width:2.26779;stroke-linejoin:miter;stroke-miterlimit:4;stroke-dasharray:none"
       d="m 370.4295,96.346353 h 45 v 69.999997 h -45 z" />
    <path
       id="rect898-0"
       style="opacity:0.725807;fill:#e6e6e6;stroke:#e6e6e6;stroke-width:2.13809;stroke-linejoin:miter;stroke-miterlimit:4;stroke-dasharray:none"
       d="m 420.4295,96.346353 h 40 v 69.999997 h -40 z" />
    <path
       d="m 331.85196,159.10645 q -2.83196,1.17145 -5.39278,1.82225 -2.53069,0.6508 -5.39278,0.6508 -3.64541,0 -6.68826,-0.91112 -3.04286,-0.93716 -5.21202,-2.81146 -2.19929,-1.87432 -3.40438,-4.73785 -1.2051,-2.86352 -1.2051,-6.69025 0,-7.13279 4.51909,-11.1938 4.54923,-4.061 11.99067,-4.061 2.89221,0 5.66392,0.70286 2.80184,0.70287 5.12164,1.71812 v 5.44071 h -0.30128 q -2.59094,-1.74415 -5.36264,-2.68131 -2.74159,-0.93716 -5.36266,-0.93716 -4.82037,0 -7.6222,2.81148 -2.77171,2.78542 -2.77171,8.2001 0,5.25849 2.71145,8.09598 2.74159,2.81148 7.68246,2.81148 1.71725,0 3.49476,-0.39049 1.77751,-0.39048 3.19349,-1.01525 1.23522,-0.54667 2.3198,-1.14542 1.08459,-0.62477 1.71725,-1.06731 h 0.30128 z"
       style="font-size:57.3541px;line-height:1.25;font-family:sans-serif;stroke-width:1.19488"
       id="path1073" />
    <path
       d="m 362.61256,159.71922 q -1.47071,0.3736 -3.21891,0.61377 -1.72046,0.24017 -3.08016,0.24017 -4.74513,0 -7.21481,-2.45508 -2.46968,-2.45507 -2.46968,-7.87224 v -15.85123 h -3.52415 v -4.21633 h 3.52415 v -8.56606 h 5.21685 v 8.56606 h 10.76671 v 4.21633 h -10.76671 v 13.58296 q 0,2.34833 0.111,3.6826 0.111,1.3076 0.77698,2.45507 0.61048,1.06743 1.66495,1.57445 1.08222,0.48034 3.27441,0.48034 1.27647,0 2.66393,-0.3469 1.38747,-0.37361 1.99794,-0.61378 h 0.2775 z"
       style="font-size:55.7306px;line-height:1.25;font-family:sans-serif;stroke-width:2.08989"
       id="path1076" />
    <path
       d="m 408.23332,122.6801 q 2.73025,2.83263 4.17039,6.93992 1.47014,4.1073 1.47014,9.31931 0,5.21202 -1.50015,9.34765 -1.47014,4.10729 -4.14038,6.85494 -2.76026,2.86094 -6.54062,4.30558 -3.75034,1.44464 -8.58079,1.44464 -4.71045,0 -8.5808,-1.47297 -3.84036,-1.47296 -6.54061,-4.27725 -2.70025,-2.80429 -4.17039,-6.88326 -1.44014,-4.07897 -1.44014,-9.31933 0,-5.15536 1.44014,-9.23433 1.44013,-4.1073 4.20039,-7.0249 2.64024,-2.77596 6.54061,-4.24892 3.93036,-1.47296 8.5508,-1.47296 4.80045,0 8.6108,1.50129 3.84036,1.47296 6.51061,4.22059 z m -0.54006,16.25923 q 0,-8.21458 -3.90035,-12.6618 -3.90037,-4.47553 -10.651,-4.47553 -6.81064,0 -10.711,4.47553 -3.87036,4.44722 -3.87036,12.6618 0,8.29958 3.96036,12.71847 3.96038,4.39056 10.621,4.39056 6.66062,0 10.59099,-4.39056 3.96036,-4.41889 3.96036,-12.71847 z"
       style="font-size:59.7042px;line-height:1.25;font-family:sans-serif;stroke-width:2.23891"
       id="path1079" />
    <path
       d="m 457.07147,147.80639 q 0,2.52823 -1.16521,4.99835 -1.13678,2.47012 -3.2114,4.18468 -2.27357,1.85984 -5.31445,2.90601 -3.01248,1.04617 -7.2754,1.04617 -4.57555,0 -8.24167,-0.87181 -3.6377,-0.8718 -7.4175,-2.58636 v -7.20692 h 0.39788 q 3.2114,2.73165 7.4175,4.21372 4.20608,1.48207 7.90063,1.48207 5.22919,0 8.12798,-2.00514 2.92721,-2.00516 2.92721,-5.34709 0,-2.87696 -1.39256,-4.24279 -1.36413,-1.36583 -4.17766,-2.12139 -2.13147,-0.5812 -4.63239,-0.95899 -2.4725,-0.37778 -5.25762,-0.95899 -5.62706,-1.22053 -8.35533,-4.1556 -2.69986,-2.96415 -2.69986,-7.70097 0,-5.43425 4.49028,-8.89242 4.49029,-3.48722 11.39624,-3.48722 4.46187,0 8.18483,0.8718 3.72295,0.87182 6.59332,2.15046 v 6.80009 h -0.39787 q -2.41566,-2.09234 -6.36597,-3.45817 -3.9219,-1.39489 -8.04273,-1.39489 -4.51871,0 -7.2754,1.91798 -2.72828,1.91797 -2.72828,4.94023 0,2.7026 1.36414,4.24279 1.36414,1.5402 4.8029,2.35389 1.81885,0.40683 5.17236,0.98804 3.3535,0.5812 5.68391,1.19146 4.71764,1.27866 7.10488,3.86502 2.38724,2.58636 2.38724,7.23599 z"
       style="font-size:58.8556px;line-height:1.25;font-family:sans-serif;stroke-width:2.20708"
       id="path1082" />
  </g>
</svg>
